<svg xmlns="http://www.w3.org/2000/svg" width="20" height="20"><path style="stroke:none;fill-rule:nonzero;fill:#000;fill-opacity:1" d="M6.348.887C4.859.937 3.41 1.555 2.3 2.609a6.26 6.26 0 0 0-.906 7.996c.906 1.368 2.296 2.31 3.964 2.684.356.078.504.09 1.262.09.742 0 .91-.016 1.242-.09a6.455 6.455 0 0 0 2.114-.871l.382-.242.957.96.961.958-.074.187c-.05.133-.074.29-.07.504 0 .531-.035.488 2.133 2.637 1.27 1.258 1.976 1.926 2.097 1.992.149.078.235.098.512.098.469 0 .68-.106 1.129-.559.453-.46.57-.687.566-1.121-.004-.535.051-.465-2.101-2.629-2.176-2.183-2.117-2.137-2.66-2.137-.22.004-.352.024-.438.07a.64.64 0 0 1-.176.067c-.027 0-.468-.418-.984-.933l-.93-.93.336-.442a6.345 6.345 0 0 0 1.164-2.656c.106-.594.114-1.566.016-2.129-.36-2.011-1.582-3.668-3.371-4.566a6.508 6.508 0 0 0-1.79-.59c-.214-.039-.96-.078-1.288-.07Zm.859 1.574c1.309.184 2.395.824 3.18 1.875a4.724 4.724 0 0 1 .672 4.266 4.681 4.681 0 0 1-3.266 3.062c-2.125.57-4.375-.445-5.387-2.434a4.725 4.725 0 0 1-.379-1.027c-.117-.43-.144-1.418-.058-1.894.191-1.024.64-1.852 1.394-2.582a4.623 4.623 0 0 1 3.2-1.301c.203 0 .496.015.644.035Zm0 0" id="surface1"/></svg>