
<svg version="1.0" xmlns="http://www.w3.org/2000/svg"
 width="512.000000pt" height="512.000000pt" viewBox="0 0 512.000000 512.000000"
 preserveAspectRatio="xMidYMid meet">

<g transform="translate(0.000000,512.000000) scale(0.100000,-0.100000)"
fill="#000000" stroke="none">
<path d="M1625 4893 c-381 -13 -752 -171 -1036 -441 -564 -536 -661 -1397
-232 -2047 232 -350 588 -591 1015 -687 91 -20 129 -23 323 -23 190 0 233 4
318 23 199 44 367 114 541 223 l98 62 245 -246 246 -245 -19 -48 c-13 -34 -19
-74 -18 -129 0 -136 -9 -125 546 -675 325 -322 506 -493 537 -510 38 -20 60
-25 131 -25 120 0 174 27 289 143 116 118 146 176 145 287 -1 137 13 119 -538
673 -557 559 -542 547 -681 547 -56 -1 -90 -6 -112 -18 -18 -9 -38 -17 -45
-17 -7 0 -120 107 -252 239 l-238 238 86 113 c149 197 254 437 298 680 27 152
29 401 4 545 -92 515 -405 939 -863 1169 -146 73 -284 118 -458 151 -55 10
-246 20 -330 18z m220 -403 c335 -47 613 -211 814 -480 229 -307 295 -728 172
-1092 -133 -391 -436 -676 -836 -784 -544 -146 -1120 114 -1379 623 -41 80
-68 153 -97 263 -30 110 -37 363 -15 485 49 262 164 474 357 661 221 213 508
330 819 333 52 0 127 -4 165 -9z"/>
</g>
</svg>
