<?xml version="1.0" encoding="UTF-8"?>
<svg xmlns="http://www.w3.org/2000/svg" xmlns:xlink="http://www.w3.org/1999/xlink" width="60px" height="60px" viewBox="0 0 60 60" version="1.1">
<g id="surface1">
<path style=" stroke:none;fill-rule:nonzero;fill:rgb(0%,0%,0%);fill-opacity:1;" d="M 19.042969 2.660156 C 14.578125 2.8125 10.230469 4.664062 6.902344 7.828125 C 0.292969 14.109375 -0.84375 24.199219 4.183594 31.816406 C 6.902344 35.917969 11.074219 38.742188 16.078125 39.867188 C 17.144531 40.101562 17.589844 40.136719 19.863281 40.136719 C 22.089844 40.136719 22.59375 40.089844 23.589844 39.867188 C 25.921875 39.351562 27.890625 38.53125 29.929688 37.253906 L 31.078125 36.527344 L 33.949219 39.410156 L 36.832031 42.28125 L 36.609375 42.84375 C 36.457031 43.242188 36.386719 43.710938 36.398438 44.355469 C 36.398438 45.949219 36.292969 45.820312 42.796875 52.265625 C 46.605469 56.039062 48.726562 58.042969 49.089844 58.242188 C 49.535156 58.476562 49.792969 58.535156 50.625 58.535156 C 52.03125 58.535156 52.664062 58.21875 54.011719 56.859375 C 55.371094 55.476562 55.722656 54.796875 55.710938 53.496094 C 55.699219 51.890625 55.863281 52.101562 49.40625 45.609375 C 42.878906 39.058594 43.054688 39.199219 41.425781 39.199219 C 40.769531 39.210938 40.371094 39.269531 40.113281 39.410156 C 39.902344 39.515625 39.667969 39.609375 39.585938 39.609375 C 39.503906 39.609375 38.179688 38.355469 36.632812 36.808594 L 33.84375 34.019531 L 34.851562 32.695312 C 36.597656 30.386719 37.828125 27.574219 38.34375 24.726562 C 38.660156 22.945312 38.683594 20.027344 38.390625 18.339844 C 37.3125 12.304688 33.644531 7.335938 28.277344 4.640625 C 26.566406 3.785156 24.949219 3.257812 22.910156 2.871094 C 22.265625 2.753906 20.027344 2.636719 19.042969 2.660156 Z M 21.621094 7.382812 C 25.546875 7.933594 28.804688 9.855469 31.160156 13.007812 C 33.84375 16.605469 34.617188 21.539062 33.175781 25.804688 C 31.617188 30.386719 28.066406 33.726562 23.378906 34.992188 C 17.003906 36.703125 10.253906 33.65625 7.21875 27.691406 C 6.738281 26.753906 6.421875 25.898438 6.082031 24.609375 C 5.730469 23.320312 5.648438 20.355469 5.90625 18.925781 C 6.480469 15.855469 7.828125 13.371094 10.089844 11.179688 C 12.679688 8.683594 16.042969 7.3125 19.6875 7.277344 C 20.296875 7.277344 21.175781 7.324219 21.621094 7.382812 Z M 21.621094 7.382812 "/>
</g>
</svg>
