<?xml version="1.0" encoding="UTF-8"?>
<svg xmlns="http://www.w3.org/2000/svg" xmlns:xlink="http://www.w3.org/1999/xlink" width="20px" height="20px" viewBox="0 0 20 20" version="1.1">
<g id="surface1">
<path style=" stroke:none;fill-rule:nonzero;fill:rgb(0%,0%,0%);fill-opacity:1;" d="M 6.347656 0.886719 C 4.859375 0.9375 3.410156 1.554688 2.300781 2.609375 C 0.0976562 4.703125 -0.28125 8.066406 1.394531 10.605469 C 2.300781 11.972656 3.691406 12.914062 5.359375 13.289062 C 5.714844 13.367188 5.863281 13.378906 6.621094 13.378906 C 7.363281 13.378906 7.53125 13.363281 7.863281 13.289062 C 8.640625 13.117188 9.296875 12.84375 9.976562 12.417969 L 10.359375 12.175781 L 11.316406 13.136719 L 12.277344 14.09375 L 12.203125 14.28125 C 12.152344 14.414062 12.128906 14.570312 12.132812 14.785156 C 12.132812 15.316406 12.097656 15.273438 14.265625 17.421875 C 15.535156 18.679688 16.242188 19.347656 16.363281 19.414062 C 16.511719 19.492188 16.597656 19.511719 16.875 19.511719 C 17.34375 19.511719 17.554688 19.40625 18.003906 18.953125 C 18.457031 18.492188 18.574219 18.265625 18.570312 17.832031 C 18.566406 17.296875 18.621094 17.367188 16.46875 15.203125 C 14.292969 13.019531 14.351562 13.066406 13.808594 13.066406 C 13.589844 13.070312 13.457031 13.089844 13.371094 13.136719 C 13.300781 13.171875 13.222656 13.203125 13.195312 13.203125 C 13.167969 13.203125 12.726562 12.785156 12.210938 12.269531 L 11.28125 11.339844 L 11.617188 10.898438 C 12.199219 10.128906 12.609375 9.191406 12.78125 8.242188 C 12.886719 7.648438 12.894531 6.675781 12.796875 6.113281 C 12.4375 4.101562 11.214844 2.445312 9.425781 1.546875 C 8.855469 1.261719 8.316406 1.085938 7.636719 0.957031 C 7.421875 0.917969 6.675781 0.878906 6.347656 0.886719 Z M 7.207031 2.460938 C 8.515625 2.644531 9.601562 3.285156 10.386719 4.335938 C 11.28125 5.535156 11.539062 7.179688 11.058594 8.601562 C 10.539062 10.128906 9.355469 11.242188 7.792969 11.664062 C 5.667969 12.234375 3.417969 11.21875 2.40625 9.230469 C 2.246094 8.917969 2.140625 8.632812 2.027344 8.203125 C 1.910156 7.773438 1.882812 6.785156 1.96875 6.308594 C 2.160156 5.285156 2.609375 4.457031 3.363281 3.726562 C 4.226562 2.894531 5.347656 2.4375 6.5625 2.425781 C 6.765625 2.425781 7.058594 2.441406 7.207031 2.460938 Z M 7.207031 2.460938 "/>
</g>
</svg>
