<?xml version="1.0" encoding="UTF-8"?>
<svg xmlns="http://www.w3.org/2000/svg" xmlns:xlink="http://www.w3.org/1999/xlink" width="25px" height="25px" viewBox="0 0 25 25" version="1.1">
<g id="surface1">
<path style=" stroke:none;fill-rule:nonzero;fill:rgb(0%,0%,0%);fill-opacity:1;" d="M 7.933594 1.109375 C 6.074219 1.171875 4.261719 1.941406 2.875 3.261719 C 0.121094 5.878906 -0.351562 10.082031 1.742188 13.257812 C 2.875 14.964844 4.613281 16.144531 6.699219 16.613281 C 7.144531 16.707031 7.328125 16.722656 8.277344 16.722656 C 9.203125 16.722656 9.414062 16.703125 9.828125 16.613281 C 10.800781 16.394531 11.621094 16.054688 12.472656 15.523438 L 12.949219 15.21875 L 14.144531 16.421875 L 15.347656 17.617188 L 15.253906 17.851562 C 15.191406 18.019531 15.160156 18.214844 15.167969 18.480469 C 15.167969 19.144531 15.121094 19.089844 17.832031 21.777344 C 19.417969 23.347656 20.300781 24.183594 20.453125 24.269531 C 20.640625 24.363281 20.746094 24.390625 21.09375 24.390625 C 21.679688 24.390625 21.941406 24.257812 22.503906 23.691406 C 23.070312 23.113281 23.21875 22.832031 23.214844 22.289062 C 23.207031 21.621094 23.277344 21.707031 20.585938 19.003906 C 17.867188 16.273438 17.941406 16.332031 17.261719 16.332031 C 16.988281 16.339844 16.820312 16.363281 16.714844 16.421875 C 16.625 16.464844 16.527344 16.503906 16.496094 16.503906 C 16.460938 16.503906 15.910156 15.980469 15.261719 15.335938 L 14.101562 14.175781 L 14.519531 13.621094 C 15.25 12.660156 15.761719 11.488281 15.976562 10.300781 C 16.109375 9.558594 16.117188 8.34375 15.996094 7.640625 C 15.546875 5.128906 14.019531 3.058594 11.78125 1.933594 C 11.070312 1.578125 10.394531 1.355469 9.546875 1.195312 C 9.277344 1.148438 8.34375 1.097656 7.933594 1.109375 Z M 9.007812 3.074219 C 10.644531 3.304688 12.003906 4.105469 12.984375 5.417969 C 14.101562 6.917969 14.425781 8.972656 13.824219 10.753906 C 13.175781 12.660156 11.695312 14.050781 9.742188 14.582031 C 7.085938 15.292969 4.273438 14.023438 3.007812 11.539062 C 2.808594 11.148438 2.675781 10.792969 2.535156 10.253906 C 2.386719 9.714844 2.355469 8.480469 2.460938 7.886719 C 2.699219 6.605469 3.261719 5.570312 4.203125 4.660156 C 5.285156 3.617188 6.683594 3.046875 8.203125 3.03125 C 8.457031 3.03125 8.824219 3.050781 9.007812 3.074219 Z M 9.007812 3.074219 "/>
</g>
</svg>
