<?xml version="1.0" encoding="UTF-8"?>
<svg xmlns="http://www.w3.org/2000/svg" xmlns:xlink="http://www.w3.org/1999/xlink" width="30px" height="30px" viewBox="0 0 30 30" version="1.1">
<g id="surface1">
<path style=" stroke:none;fill-rule:nonzero;fill:rgb(0%,0%,0%);fill-opacity:1;" d="M 9.519531 1.332031 C 7.289062 1.40625 5.113281 2.332031 3.449219 3.914062 C 0.144531 7.054688 -0.421875 12.097656 2.089844 15.910156 C 3.449219 17.957031 5.535156 19.371094 8.039062 19.933594 C 8.574219 20.050781 8.792969 20.066406 9.933594 20.066406 C 11.042969 20.066406 11.296875 20.042969 11.792969 19.933594 C 12.960938 19.675781 13.945312 19.265625 14.964844 18.628906 L 15.539062 18.261719 L 16.972656 19.707031 L 18.417969 21.140625 L 18.304688 21.421875 C 18.230469 21.621094 18.191406 21.855469 18.199219 22.175781 C 18.199219 22.972656 18.144531 22.910156 21.398438 26.132812 C 23.300781 28.019531 24.363281 29.019531 24.542969 29.121094 C 24.769531 29.238281 24.894531 29.269531 25.3125 29.269531 C 26.015625 29.269531 26.332031 29.109375 27.003906 28.429688 C 27.683594 27.738281 27.863281 27.398438 27.855469 26.746094 C 27.847656 25.945312 27.933594 26.050781 24.703125 22.804688 C 21.441406 19.527344 21.527344 19.597656 20.714844 19.597656 C 20.386719 19.605469 20.183594 19.636719 20.058594 19.707031 C 19.949219 19.757812 19.832031 19.804688 19.792969 19.804688 C 19.753906 19.804688 19.089844 19.175781 18.316406 18.402344 L 16.921875 17.011719 L 17.425781 16.347656 C 18.300781 15.191406 18.914062 13.785156 19.171875 12.363281 C 19.332031 11.472656 19.339844 10.011719 19.195312 9.167969 C 18.65625 6.152344 16.824219 3.667969 14.136719 2.320312 C 13.285156 1.894531 12.472656 1.628906 11.457031 1.433594 C 11.132812 1.378906 10.011719 1.316406 9.519531 1.332031 Z M 10.808594 3.691406 C 12.773438 3.964844 14.402344 4.925781 15.582031 6.503906 C 16.921875 8.300781 17.308594 10.769531 16.589844 12.902344 C 15.808594 15.191406 14.035156 16.863281 11.691406 17.496094 C 8.503906 18.351562 5.128906 16.828125 3.609375 13.847656 C 3.371094 13.378906 3.210938 12.949219 3.042969 12.304688 C 2.863281 11.660156 2.824219 10.175781 2.953125 9.464844 C 3.238281 7.925781 3.914062 6.683594 5.042969 5.589844 C 6.339844 4.339844 8.019531 3.65625 9.84375 3.636719 C 10.148438 3.636719 10.589844 3.660156 10.808594 3.691406 Z M 10.808594 3.691406 "/>
</g>
</svg>
