<?xml version="1.0" encoding="UTF-8"?>
<svg xmlns="http://www.w3.org/2000/svg" xmlns:xlink="http://www.w3.org/1999/xlink" width="40px" height="40px" viewBox="0 0 40 40" version="1.1">
<g id="surface1">
<path style=" stroke:none;fill-rule:nonzero;fill:rgb(0%,0%,0%);fill-opacity:1;" d="M 12.695312 1.773438 C 9.71875 1.875 6.820312 3.109375 4.601562 5.21875 C 0.195312 9.40625 -0.5625 16.132812 2.789062 21.210938 C 4.601562 23.945312 7.382812 25.828125 10.71875 26.578125 C 11.429688 26.734375 11.726562 26.757812 13.242188 26.757812 C 14.726562 26.757812 15.0625 26.726562 15.726562 26.578125 C 17.28125 26.234375 18.59375 25.6875 19.953125 24.835938 L 20.71875 24.351562 L 22.632812 26.273438 L 24.554688 28.1875 L 24.40625 28.5625 C 24.304688 28.828125 24.257812 29.140625 24.265625 29.570312 C 24.265625 30.632812 24.195312 30.546875 28.53125 34.84375 C 31.070312 37.359375 32.484375 38.695312 32.726562 38.828125 C 33.023438 38.984375 33.195312 39.023438 33.75 39.023438 C 34.6875 39.023438 35.109375 38.8125 36.007812 37.90625 C 36.914062 36.984375 37.148438 36.53125 37.140625 35.664062 C 37.132812 34.59375 37.242188 34.734375 32.9375 30.40625 C 28.585938 26.039062 28.703125 26.132812 27.617188 26.132812 C 27.179688 26.140625 26.914062 26.179688 26.742188 26.273438 C 26.601562 26.34375 26.445312 26.40625 26.390625 26.40625 C 26.335938 26.40625 25.453125 25.570312 24.421875 24.539062 L 22.5625 22.679688 L 23.234375 21.796875 C 24.398438 20.257812 25.21875 18.382812 25.5625 16.484375 C 25.773438 15.296875 25.789062 13.351562 25.59375 12.226562 C 24.875 8.203125 22.429688 4.890625 18.851562 3.09375 C 17.710938 2.523438 16.632812 2.171875 15.273438 1.914062 C 14.84375 1.835938 13.351562 1.757812 12.695312 1.773438 Z M 14.414062 4.921875 C 17.03125 5.289062 19.203125 6.570312 20.773438 8.671875 C 22.5625 11.070312 23.078125 14.359375 22.117188 17.203125 C 21.078125 20.257812 18.710938 22.484375 15.585938 23.328125 C 11.335938 24.46875 6.835938 22.4375 4.8125 18.460938 C 4.492188 17.835938 4.28125 17.265625 4.054688 16.40625 C 3.820312 15.546875 3.765625 13.570312 3.9375 12.617188 C 4.320312 10.570312 5.21875 8.914062 6.726562 7.453125 C 8.453125 5.789062 10.695312 4.875 13.125 4.851562 C 13.53125 4.851562 14.117188 4.882812 14.414062 4.921875 Z M 14.414062 4.921875 "/>
</g>
</svg>
